<svg xmlns="http://www.w3.org/2000/svg" viewBox="0 0 24 16"><path d="M0 2a2 2 0 0 1 2-2h20a2 2 0 0 1 2 2v12a2 2 0 0 1-2 2H2a2 2 0 0 1-2-2z" fill="#231f20"/><path d="M0 2a2 2 0 0 1 2-2h20a2 2 0 0 1 2 2v12a2 2 0 0 1-2 2H2a2 2 0 0 1-2-2z" fill="url(#a)" fill-opacity=".2"/><path d="M6.315 4.5h.165a3.5 3.5 0 0 1 3.34 2.797l-1.41.288a2.06 2.06 0 0 0-2.667-1.54l-.456-1.366c.331-.11.679-.17 1.028-.18" fill="#fbc707"/><path d="M3.042 7.006a3.5 3.5 0 0 1 1.037-1.628l.953 1.078a2.06 2.06 0 0 0 0 3.08q-.475.54-.953 1.078A3.5 3.5 0 0 1 2.9 8.097v-.193a3.7 3.7 0 0 1 .143-.898" fill="#38a7e4"/><path d="M15.337 5.43h.907v4.084l.635.257-.36.841-.49-.203c-.154-.065-.32-.118-.44-.24-.174-.159-.252-.4-.252-.631zm-3.934 1.46a2.05 2.05 0 0 1 1.274-.549c.364-.024.733.05 1.062.205.213.1.415.227.581.394.27.268.45.611.58.964l-3.847 1.678a2.13 2.13 0 0 1-.309-1.38 2.23 2.23 0 0 1 .659-1.312m1.208.366c-.266.057-.526.188-.697.405-.181.225-.25.526-.221.81l1.935-.832a1.2 1.2 0 0 0-.412-.323.97.97 0 0 0-.605-.06m5.762-.806a2.14 2.14 0 0 1 1.78.2c.503.302.868.821.985 1.397v.003l-.956.194a1.17 1.17 0 0 0-.648-.82 1.17 1.17 0 0 0-.853-.05zm-1.458 2.096a2.12 2.12 0 0 1 .72-1.67q.325.364.65.725a1.163 1.163 0 0 0-.003 1.743l-.65.727a2.13 2.13 0 0 1-.717-1.525m3.266.164.956.194a2.14 2.14 0 0 1-.989 1.398 2.14 2.14 0 0 1-1.78.196l.31-.925a1.164 1.164 0 0 0 1.503-.863m-7.258.965c.357-.048.711-.232.905-.544.266.172.526.35.79.525-.316.498-.864.82-1.438.921a2.06 2.06 0 0 1-1.514-.348l.518-.773c.2.177.476.255.74.219" fill="#fff"/><path d="M8.41 8.409q.705.143 1.409.288a3.5 3.5 0 0 1-2.756 2.73c-.198.04-.4.054-.6.073h-.127a4 4 0 0 1-1.05-.188l.456-1.365c.568.191 1.22.12 1.729-.198.48-.293.828-.79.938-1.34" fill="#ef3120"/><path d="M2 .5h20v-1H2zM23.5 2v12h1V2zM22 15.5H2v1h20zM.5 14V2h-1v12zM2 15.5A1.5 1.5 0 0 1 .5 14h-1A2.5 2.5 0 0 0 2 16.5zM23.5 14a1.5 1.5 0 0 1-1.5 1.5v1a2.5 2.5 0 0 0 2.5-2.5zM22 .5A1.5 1.5 0 0 1 23.5 2h1A2.5 2.5 0 0 0 22-.5zM2-.5A2.5 2.5 0 0 0-.5 2h1A1.5 1.5 0 0 1 2 .5z" fill="#141212"/><defs><linearGradient gradientUnits="userSpaceOnUse" id="a" x1="0" x2="24" y1="0" y2="16"><stop stop-color="#fff"/><stop offset="1" stop-color="#fff" stop-opacity="0"/></linearGradient></defs></svg>
